<svg xmlns="http://www.w3.org/2000/svg" viewBox="0 0 976 1266" height="1266" width="976">
    <path d="M929.878 1128.717L799.621 899.553c-33.229-58.456-87.598-154.109-120.825-212.568l-88.276-155.31V368.474c25.481-1.35 45.845-19.308 45.845-41.13 0-22.694-22.006-41.26-48.899-41.26H388.802c-26.896 0-48.905 18.566-48.905 41.26 0 21.822 20.374 39.78 45.851 41.13v163.19l-88.287 155.32c-33.225 58.459-87.594 154.113-120.819 212.568l-130.26 229.164C13.156 1187.172 40.985 1235 108.226 1235h759.808c67.24 0 95.07-47.828 61.844-106.283zM442.129 268.581c-23.404 0-42.446-19.041-42.446-42.446 0-23.405 19.042-42.446 42.446-42.446 23.405 0 42.446 19.041 42.446 42.446.001 23.405-19.04 42.446-42.446 42.446zm0-72.981c-16.836 0-30.534 13.699-30.534 30.535 0 16.837 13.698 30.535 30.534 30.535 16.838 0 30.535-13.698 30.535-30.535.001-16.836-13.697-30.535-30.535-30.535zM517.718 203.419c-17.657 0-32.021-14.364-32.021-32.021 0-17.655 14.364-32.02 32.021-32.02 17.654 0 32.021 14.365 32.021 32.02 0 17.657-14.366 32.021-32.021 32.021zm0-52.129c-11.089 0-20.109 9.021-20.109 20.108 0 11.088 9.021 20.109 20.109 20.109 11.088 0 20.108-9.021 20.108-20.109.001-11.087-9.02-20.108-20.108-20.108z"
          fill="#B60000"/>
    <path fill="#fff"
          d="M944.665 1120.313L607.527 527.179V382.805c26.688-7.54 45.845-29.663 45.845-55.461 0-32.129-29.566-58.268-65.907-58.268h-104.28c11.324-10.832 18.399-26.071 18.399-42.941a59.68 59.68 0 0 0-.638-8.665 48.796 48.796 0 0 0 16.773 2.957c27.034 0 49.028-21.994 49.028-49.028s-21.994-49.028-49.028-49.028c-2.35 0-4.658.176-6.92.498a79.977 79.977 0 0 0 3.819-24.45c0-44.281-36.025-80.306-80.307-80.306-44.281 0-80.306 36.025-80.306 80.306 0 36.272 24.18 66.99 57.262 76.919-17.13 10.446-28.591 29.308-28.591 50.797 0 16.87 7.075 32.11 18.399 42.941h-12.272c-36.345 0-65.913 26.139-65.913 58.268 0 25.797 19.161 47.921 45.851 55.461v144.362L282.675 678.58 173.869 870.011 31.595 1120.313c-19.186 33.755-21.554 66.435-6.667 92.02 14.887 25.585 44.47 39.676 83.298 39.676h759.809c38.828 0 68.41-14.09 83.297-39.676 14.886-25.586 12.519-58.266-6.667-92.02zM455.657 226.135c0 7.458-6.068 13.527-13.527 13.527-7.458 0-13.526-6.068-13.526-13.527s6.068-13.527 13.526-13.527 13.527 6.068 13.527 13.527zm10.887-54.188a80.522 80.522 0 0 0 2.155-.976c-.001.143-.011.284-.011.427 0 .533.023 1.06.04 1.589a57.506 57.506 0 0 0-2.184-1.04zm51.174-3.649c1.681 0 3.101 1.42 3.101 3.101s-1.42 3.102-3.101 3.102-3.102-1.42-3.102-3.102c.001-1.681 1.421-3.101 3.102-3.101zm-117.787-69.88c0-18.957 15.422-34.379 34.379-34.379s34.379 15.422 34.379 34.379c0 18.957-15.422 34.378-34.379 34.378s-34.379-15.421-34.379-34.378z"/>
    <path fill="#B60000"
          d="M434.31 161.715c-34.902 0-63.298-28.395-63.298-63.297S399.408 35.12 434.31 35.12c34.903 0 63.299 28.396 63.299 63.298s-28.396 63.297-63.299 63.297zm0-114.684c-28.334 0-51.387 23.053-51.387 51.387s23.053 51.386 51.387 51.386c28.335 0 51.387-23.052 51.387-51.386 0-28.334-23.052-51.387-51.387-51.387zM442.129 268.581c-23.404 0-42.446-19.041-42.446-42.446 0-23.405 19.042-42.446 42.446-42.446 23.405 0 42.446 19.041 42.446 42.446.001 23.405-19.04 42.446-42.446 42.446zm0-72.981c-16.836 0-30.534 13.699-30.534 30.535 0 16.837 13.698 30.535 30.534 30.535 16.838 0 30.535-13.698 30.535-30.535.001-16.836-13.697-30.535-30.535-30.535zM517.718 203.419c-17.657 0-32.021-14.364-32.021-32.021 0-17.655 14.364-32.02 32.021-32.02 17.654 0 32.021 14.365 32.021 32.02 0 17.657-14.366 32.021-32.021 32.021zm0-52.129c-11.089 0-20.109 9.021-20.109 20.108 0 11.088 9.021 20.109 20.109 20.109 11.088 0 20.108-9.021 20.108-20.109.001-11.087-9.02-20.108-20.108-20.108z"/>
    <path fill="#B60000"
          d="M434.31 161.715c-34.902 0-63.298-28.395-63.298-63.297S399.408 35.12 434.31 35.12c34.903 0 63.299 28.396 63.299 63.298s-28.396 63.297-63.299 63.297zm0-114.684c-28.334 0-51.387 23.053-51.387 51.387s23.053 51.386 51.387 51.386c28.335 0 51.387-23.052 51.387-51.386 0-28.334-23.052-51.387-51.387-51.387zM929.878 1128.717L799.621 899.553c-33.229-58.456-87.598-154.109-120.825-212.568l-88.276-155.31V368.474c25.481-1.35 45.845-19.308 45.845-41.13 0-22.694-22.006-41.26-48.899-41.26H388.802c-26.896 0-48.905 18.566-48.905 41.26 0 21.822 20.374 39.78 45.851 41.13v163.19l-88.287 155.32c-33.225 58.459-87.594 154.113-120.819 212.568l-130.26 229.164C13.156 1187.172 40.985 1235 108.226 1235h759.808c67.24 0 95.07-47.828 61.844-106.283z"/>
    <g fill="#FFF">
        <path d="M356.322 923.586H370.8v105.574h-13.024l-70.611-81.308v81.308H272.81V923.586h12.27l71.242 82.011v-82.011zM397.917 923.586h59.956v13.425H413v32.197h43.251v13.567H413v32.766h46.329v13.475h-61.413v-105.43zM619.142 923.586h15.149l-42.585 106.049h-3.504l-34.376-85.892-34.848 85.892h-3.402L473.08 923.586h15.257l29.015 72.789 29.305-72.789h14.374l29.368 72.789 28.743-72.789zM675.232 984.969L663.799 978c-7.332-4.439-12.51-8.792-15.422-13.036-2.987-4.204-4.556-9.137-4.556-14.696 0-8.286 2.773-15.071 8.527-20.261 5.803-5.18 13.344-7.771 22.669-7.771 8.776 0 16.856 2.43 24.222 7.422v17.114c-7.696-7.315-15.807-10.931-24.604-10.931-4.892 0-9.106 1.151-12.242 3.396-3.217 2.288-4.852 5.196-4.852 8.853 0 3.129 1.309 6.053 3.741 8.831 2.144 2.741 5.986 5.65 11.104 8.649l11.52 6.834c13.054 7.697 19.543 17.557 19.543 29.42 0 8.447-2.948 15.307-8.526 20.594-5.788 5.335-13.153 7.955-22.074 7.955-10.482 0-19.976-3.188-28.492-9.569v-19.218c7.941 10.319 17.386 15.545 28.177 15.545 4.744 0 8.827-1.318 11.948-3.966 3.193-2.649 4.653-5.997 4.653-9.97 0-6.361-4.653-12.451-13.903-18.226zM503.621 833.664c0 2.47-.918 5.086-3.093 7.008-2.145 2.041-6.093 3.466-12.576 3.466H475.17V823.41h12.25c5.694-.018 9.869 1.166 12.488 2.927 2.484 1.878 3.67 4.257 3.713 7.327zm-10.539-24.92c2.415-1.683 3.664-4.171 3.703-7.831 0-2.54-.881-4.732-2.609-6.32-1.896-1.667-4.934-2.765-9.96-2.765h-9.046v19.732h6.254c5.337 0 9.167-1.008 11.658-2.816zm51.052-43.651v105.709H432.083V765.093h112.051zm-26.783 70.073c.106-9.617-6.308-16.844-16.255-19.69 2.532-1.394 4.64-3.092 6.397-5.158 2.115-2.91 3.132-6.33 3.132-10.387 0-4.915-1.927-9.983-6.018-13.771-4.168-3.803-10.52-6.166-19.22-6.166h-23.932v76.033h28.084c9.903 0 16.959-2.761 21.482-6.75 4.65-3.96 6.36-9.232 6.33-14.111zm-153.186-26.422c2.462-1.683 3.505-4.171 3.505-7.831 0-2.54-.604-4.732-2.504-6.32-1.742-1.667-4.883-2.765-9.963-2.765h-8.998v19.732h6.292c5.355 0 9.288-1.008 11.668-2.816zm6.667 17.592c-2.525-1.761-6.596-2.945-12.36-2.927h-12.267v20.728h12.887c6.458 0 10.246-1.426 12.409-3.466 2.337-1.921 3.115-4.538 3.115-7.008 0-3.069-1.046-5.448-3.784-7.327zm44.289-61.243v105.709H303.274V765.093h111.847zm-26.643 70.073c.16-9.617-6.274-16.844-16.573-19.69 2.808-1.394 4.984-3.092 6.605-5.158 2.128-2.91 3.157-6.33 3.157-10.387 0-4.915-1.818-9.983-6.008-13.771-4.205-3.803-10.543-6.166-19.194-6.166h-23.937v76.033H360.521c10.021 0 17.212-2.761 21.541-6.75 4.566-3.96 6.416-9.232 6.416-14.111zm284.504-70.073v105.709H561.146V765.093h111.836zm-22.175 70.579l-1.757 1.117c-8.776 5.341-18.154 8.123-26.671 8.123-18.349-.093-30.413-10.922-30.466-26.832 0-15.463 12.599-27.034 29.902-27.034 8.918 0 16.885 2.334 26.4 7.532l1.863.946v-14.146l-.811-.293c-10.752-4.238-19.161-6.147-27.169-6.147-12.744 0-23.69 4.202-31.559 11.314-7.883 7.122-12.509 17.248-12.509 28.804 0 8.081 3.243 17.533 10.433 24.998 6.958 7.531 18.04 12.982 32.821 12.982h.049c12.544 0 21.025-2.745 28.782-6.618l.689-.352v-14.394z"/>
    </g>
    <g fill="#FFF">
        <path d="M373.114 1085.791h10.864v65.995h34.166v9.888h-45.03v-75.883zM452.991 1085.357h7.634l34.024 76.316h-11.118l-10.113-22.49h-32.374l-9.482 22.49h-11.164l32.593-76.316zm15.96 44.161l-12.243-27.486-11.353 27.486h23.596zM529.764 1161.674h-25.692v-75.883h19.882c6.265 0 11.151.844 14.665 2.525 3.512 1.686 6.191 4.002 8.037 6.953 1.848 2.951 2.772 6.365 2.772 10.238 0 7.461-3.856 12.802-11.571 16.023 5.541 1.052 9.95 3.332 13.227 6.844 3.277 3.514 4.918 7.714 4.918 12.604 0 3.875-.999 7.33-2.989 10.375-1.991 3.042-4.916 5.521-8.772 7.439-3.857 1.921-8.683 2.882-14.477 2.882zm-5.485-66.215h-9.344v22.814h7.225c5.792 0 9.913-1.105 12.358-3.314 2.441-2.207 3.663-5.067 3.663-8.582 0-7.277-4.635-10.918-13.902-10.918zm.815 32.482h-10.159v24.064h10.702c5.936 0 9.968-.465 12.083-1.389 2.12-.922 3.822-2.361 5.107-4.316s1.93-4.055 1.93-6.3c0-2.319-.681-4.437-2.039-6.356-1.356-1.919-3.286-3.35-5.783-4.291-2.5-.941-6.447-1.412-11.841-1.412zM586.606 1129.877l-8.258-5.014c-5.178-3.16-8.862-6.274-11.052-9.333-2.191-3.06-3.286-6.581-3.286-10.563 0-5.979 2.071-10.829 6.218-14.557 4.148-3.73 9.533-5.596 16.158-5.596 6.339 0 12.148 1.779 17.438 5.334v12.332c-5.469-5.26-11.353-7.889-17.652-7.889-3.549 0-6.465.818-8.748 2.461-2.279 1.642-3.418 3.741-3.418 6.301 0 2.274.839 4.402 2.52 6.386 1.678 1.985 4.381 4.067 8.106 6.251l8.297 4.906c9.256 5.529 13.882 12.568 13.882 21.112 0 6.083-2.034 11.026-6.111 14.829-4.072 3.805-9.369 5.701-15.886 5.701-7.496 0-14.322-2.301-20.477-6.91v-13.795c5.864 7.432 12.655 11.148 20.368 11.148 3.403 0 6.236-.947 8.499-2.845 2.263-1.892 3.396-4.265 3.396-7.115-.001-4.617-3.335-8.998-9.994-13.144z"/>
    </g>
    <path d="M483.079 101.732a43.727 39.265 0 1 1-87.454 0 43.727 39.265 0 1 1 87.454 0zM523.534 170.743a5.95 5.354 0 1 1-11.899 0 5.95 5.354 0 1 1 11.899 0zM470.586 171.636a5.354 3.867 0 1 1-10.71 0 5.354 3.867 0 1 1 10.71 0zM457.497 226.964a18.145 17.55 0 1 1-36.29 0 18.145 17.55 0 1 1 36.29 0z"
          fill="#fff"/>
</svg>